<?xml version="1.0" encoding="UTF-8"?>
<svg width="1200pt" height="1200pt" version="1.1" viewBox="0 0 1200 1200" xmlns="http://www.w3.org/2000/svg">
 <g>
  <path d="m112.5 375c20.738 0 37.5-16.762 37.5-37.5v-187.5h187.5c20.738 0 37.5-16.762 37.5-37.5s-16.762-37.5-37.5-37.5h-225c-20.738 0-37.5 16.762-37.5 37.5v225c0 20.738 16.762 37.5 37.5 37.5z"/>
  <path d="m337.5 1050h-187.5v-187.5c0-20.738-16.762-37.5-37.5-37.5s-37.5 16.762-37.5 37.5v225c0 20.738 16.762 37.5 37.5 37.5h225c20.738 0 37.5-16.762 37.5-37.5s-16.762-37.5-37.5-37.5z"/>
  <path d="m1087.5 75h-225c-20.738 0-37.5 16.762-37.5 37.5s16.762 37.5 37.5 37.5h187.5v187.5c0 20.738 16.762 37.5 37.5 37.5s37.5-16.762 37.5-37.5v-225c0-20.738-16.762-37.5-37.5-37.5z"/>
  <path d="m1087.5 825c-20.738 0-37.5 16.762-37.5 37.5v187.5h-187.5c-20.738 0-37.5 16.762-37.5 37.5s16.762 37.5 37.5 37.5h225c20.738 0 37.5-16.762 37.5-37.5v-225c0-20.738-16.762-37.5-37.5-37.5z"/>
  <path d="m975 937.5v-262.5c0-20.738-16.762-37.5-37.5-37.5h-78c1.7617-12.301 3-24.75 3-37.5 0-144.71-117.79-262.5-262.5-262.5-26.363 0-51.824 4.0117-75.863 11.289l-78.863-141.98c-13.199-23.812-52.352-23.812-65.551 0l-187.5 337.5c-6.4492 11.625-6.3008 25.801 0.44922 37.199 6.7148 11.477 19.055 18.488 32.328 18.488h112.5c0 118.65 79.238 219.07 187.5 251.44v86.062c0 20.738 16.762 37.5 37.5 37.5h375c20.738 0 37.5-16.762 37.5-37.5zm-686.29-412.5 123.79-222.75 43.613 78.488c-51.039 33.598-89.664 84.449-107.55 144.26zm247.58 0h-107.89c13.914-31.688 36.336-58.688 64.352-78.375zm-123.79 75h187.5c13.273 0 25.613-7.0508 32.324-18.488 6.75-11.438 6.8984-25.613 0.44922-37.199l-71.023-127.84c12.375-2.5898 25.125-3.9766 38.25-3.9766 103.39 0 187.5 84.113 187.5 187.5 0 12.824-1.3125 25.387-3.7891 37.5h-221.21c-20.738 0-37.5 16.762-37.5 37.5v96.602c-66.113-29.027-112.5-94.914-112.5-171.6zm336.52 112.5c-34.273 45.262-88.051 75-149.02 75v-75zm150.98 187.5h-300v-37.5c104.44 0 194.55-61.461 236.81-150h63.188z"/>
 </g>
</svg>
